<svg width="343" height="70" viewBox="0 0 343 70" fill="none" xmlns="http://www.w3.org/2000/svg">
<g clip-path="url(#clip0_227_17)">
<path fill-rule="evenodd" clip-rule="evenodd" d="M154.335 3.22469L158.56 3.36907L156.928 0.673984C156.904 0.625858 156.88 0.553668 156.88 0.505542C156.88 0.457415 156.88 0.385225 156.88 0.337099C156.88 0.288972 156.928 0.240846 156.952 0.192719C156.976 0.144593 157.024 0.12053 157.072 0.0964663C157.12 0.0724031 157.168 0.0483398 157.24 0.0483398C157.288 0.0483398 157.36 0.0483398 157.408 0.0483398L171.763 4.21128C171.812 4.21128 171.836 4.23535 171.884 4.25941C171.932 4.28347 171.98 4.3316 172.004 4.37973L174.836 8.68705L183.791 6.85824H183.839C183.887 6.85824 183.935 6.85824 183.983 6.85824C184.055 6.85824 184.103 6.90637 184.151 6.95449L188.952 11.4543C189 11.5024 189.024 11.5265 189.048 11.5987C189.072 11.6468 189.096 11.695 189.096 11.7671C189.096 11.8393 189.096 11.8153 189.096 11.8393C189.096 11.8634 189.096 11.8875 189.096 11.9115C189.096 11.9115 189.072 11.9596 189.048 11.9837C189.048 11.9837 189.024 12.0318 189 12.0559C189 12.0559 188.952 12.104 188.928 12.104C188.928 12.104 188.88 12.1281 188.856 12.1522C188.832 12.1522 188.808 12.1522 188.784 12.1762C188.76 12.1762 188.736 12.1762 188.712 12.1762L182.83 12.3687L181.078 18.3364C181.078 18.3845 181.03 18.4327 181.006 18.4808C180.982 18.5289 180.934 18.553 180.91 18.577L169.555 26.566L170.131 28.5874C170.131 28.5874 170.131 28.6355 170.131 28.6595C170.131 28.6595 170.131 28.7077 170.131 28.7317C170.131 28.7558 170.131 28.7799 170.131 28.8039C170.131 28.8039 170.131 28.8521 170.131 28.8761C170.131 28.8761 170.131 28.9242 170.107 28.9483C170.107 28.9483 170.107 28.9964 170.059 28.9964C170.059 28.9964 170.059 29.0205 170.011 29.0446C169.963 29.0686 169.987 29.0686 169.963 29.0927L161.825 34.8197C161.777 34.8438 161.729 34.8679 161.657 34.8919C161.609 34.8919 161.537 34.8919 161.489 34.8919C161.489 34.8919 161.441 34.8919 161.417 34.8679C161.417 34.8679 161.369 34.8679 161.345 34.8438C161.321 34.8438 161.297 34.8197 161.273 34.7957C161.273 34.7957 161.225 34.7476 161.225 34.7235C161.225 34.6994 161.201 34.6754 161.177 34.6513C161.177 34.6272 161.177 34.6032 161.177 34.5791C161.177 34.555 161.177 34.531 161.177 34.4829C161.177 34.4347 161.177 34.4347 161.177 34.3866L165.066 14.2697L154.023 3.94659C153.975 3.92252 153.951 3.85033 153.927 3.80221C153.927 3.75408 153.879 3.70595 153.879 3.63376C153.879 3.58564 153.879 3.51345 153.903 3.46532C153.903 3.4172 153.951 3.36907 153.999 3.32094C153.999 3.32094 154.047 3.27282 154.071 3.27282C154.095 3.27282 154.119 3.24875 154.143 3.22469C154.167 3.22469 154.191 3.22469 154.239 3.20063C154.263 3.20063 154.311 3.20063 154.335 3.20063V3.22469ZM158.224 1.15525L159.688 3.58564L165.546 13.3072L170.995 4.83693L158.224 1.13119V1.15525ZM155.439 4.11503L163.601 11.7431L159.088 4.23535L155.439 4.11503ZM174.284 9.36082L171.667 5.36632L166.194 13.8606L179.686 17.5423L174.308 9.38488L174.284 9.36082ZM175.364 9.43301L183.286 7.82077L180.502 17.2536L175.364 9.43301ZM183.094 11.5265L184.127 8.03734L187.68 11.3581L183.118 11.5265H183.094ZM166.146 14.751L179.662 18.4567L169.291 25.772L166.146 14.7751V14.751ZM165.618 15.9542L162.209 33.4963L169.219 28.5633L165.594 15.9542H165.618Z" fill="white"/>
<path d="M1.27233 69.0855C1.1763 69.0614 1.08028 69.0374 0.984252 69.0374C0.62416 69.0374 0.384099 69.2058 0.264068 69.5668H0V64.9948H0.288074C0.816209 67.0401 1.89649 69.5908 4.41713 69.5908C6.93778 69.5908 7.34588 68.2914 7.34588 66.5829C7.34588 64.8744 7.08182 64.9948 6.67371 64.4172C6.45766 64.1285 6.16958 63.8638 5.78548 63.5991C5.40139 63.3344 4.80123 62.9975 4.00903 62.5884C2.20857 61.674 0.552142 60.7837 0.552142 58.4255C0.552142 56.0673 2.3526 54.1182 4.70521 54.1182C7.05781 54.1182 6.09756 54.3347 6.84176 54.6476C7.20185 54.7919 7.46592 54.8882 7.58595 54.9123C7.70598 54.9604 7.85001 54.9844 7.94604 54.9844C8.21011 54.9844 8.37815 54.7919 8.47417 54.431H8.73824L8.81026 58.8105H8.54619C8.35414 58.1127 8.1861 57.5833 8.04206 57.1983C7.48992 55.7785 6.48166 54.4791 4.82524 54.4791C3.16881 54.4791 3.36086 54.7438 2.88074 55.3213C2.49664 55.7785 2.23257 56.4282 2.23257 57.0539C2.23257 58.2811 3.02478 59.2677 4.60918 60.0377L6.16958 60.7837C8.13809 61.7222 9.67448 62.9975 9.67448 65.3316C9.67448 67.6658 9.55445 66.6551 9.26638 67.2808C8.49818 69.0133 6.91377 69.9758 4.84924 69.9758C2.78471 69.9758 2.97676 69.7833 2.11254 69.4224C1.65642 69.2299 1.39236 69.1096 1.29633 69.0855H1.27233Z" fill="white"/>
<path d="M22.614 62.1795V66.1499C22.614 67.9065 22.734 69.2541 24.9186 69.3744V69.6391H17.8848V69.3744C20.0933 69.2541 20.1894 67.9306 20.1894 66.1499V58.0165C20.1894 56.2358 20.0693 54.9364 17.9568 54.792H17.8848V54.5273H24.5345C25.6868 54.5273 26.551 54.5755 27.1031 54.6958C27.6553 54.8161 28.1594 55.0567 28.6155 55.3936C29.6718 56.1877 30.1759 57.2465 30.1759 58.57C30.1759 60.8078 28.6395 61.9388 26.575 62.1073C26.3109 62.1073 25.7348 62.1313 24.7745 62.1313H22.614V62.1795ZM22.614 54.8883V61.8426H23.6943C24.4144 61.8426 24.9906 61.7944 25.3747 61.6741C26.767 61.2891 27.5112 59.8453 27.5112 58.4737C27.5112 57.1021 26.551 55.1289 24.7025 54.9124C24.5345 54.9124 24.1504 54.9124 23.5502 54.9124H22.614V54.8883Z" fill="white"/>
<path d="M42.4421 61.8424V69.2538H45.971C48.8758 69.2538 50.1241 68.1229 50.7482 65.1872H51.0123L50.8683 69.5907H37.7129V69.326C39.8975 69.2057 40.0175 67.8822 40.0175 66.1016V57.9682C40.0175 56.2116 39.8975 54.864 37.7129 54.7437V54.479H49.5479L49.74 58.1126H49.4759C49.3079 57.0297 48.9478 56.2116 48.0355 55.5137C47.1473 54.864 45.995 54.8159 44.9387 54.8159H42.4181V61.4333H43.0903C45.1548 61.4333 45.875 61.0723 46.139 58.7863H46.4031L46.3551 64.73H46.091C45.851 62.7808 45.2748 61.7942 43.0663 61.7942H42.4421V61.8424Z" fill="white"/>
<path d="M69.8335 54.6718L70.7457 54.9606C70.9137 55.0328 71.0818 55.0568 71.2018 55.0568C71.5859 55.0568 71.7059 54.7681 71.85 54.4553H72.114L72.2341 59.3882H71.97C71.898 59.1717 71.826 59.0032 71.778 58.907C71.2978 57.5835 70.9617 56.645 69.9055 55.6344C69.0893 54.8403 68.249 54.5275 67.1448 54.5275C66.0405 54.5275 65.5844 54.6959 64.9842 55.0568C63.9039 55.6825 62.9437 56.9338 62.3435 58.4498C61.9354 59.5085 61.7194 60.7358 61.7194 62.1074C61.7194 65.765 63.3278 69.3023 67.4328 69.3023C71.5379 69.3023 70.5056 68.7007 71.2498 67.6419C71.6819 67.0403 71.994 66.1981 72.1861 65.1634L72.4501 65.2115C72.3061 66.3666 71.994 67.305 71.4899 67.9788C70.5536 69.3023 68.8492 70.0001 66.6646 70.0001C62.1035 70.0001 59.0547 67.1125 59.0547 62.3721C59.0547 57.6316 59.8709 57.4391 61.8154 55.8991C63.2318 54.7921 65.2243 54.1665 67.0007 54.1665C68.7772 54.1665 68.8252 54.3349 69.8335 54.6718Z" fill="white"/>
<path d="M92.9751 62.0832H85.1491V66.1499C85.1491 67.9065 85.2692 69.2541 87.4537 69.3744V69.6391H80.4199V69.3744C82.6285 69.2541 82.7245 67.9306 82.7245 66.1499V58.0165C82.7245 56.2599 82.6045 54.9124 80.4199 54.792V54.5273H87.4537V54.792C85.2692 54.9124 85.1491 56.2358 85.1491 58.0165V61.5538H92.9751V58.0165C92.9751 56.2358 92.8551 54.9124 90.6465 54.792V54.5273H97.6803V54.792C95.4958 54.9124 95.3758 56.2358 95.3758 58.0165V66.1499C95.3758 67.9065 95.4958 69.2541 97.6803 69.3744V69.6391H90.6465V69.3744C92.8551 69.2541 92.9751 67.9306 92.9751 66.1499V62.0832Z" fill="white"/>
<path d="M111.509 54.8882C111.053 54.8882 110.549 54.8882 110.021 54.9363C107.26 55.0807 105.964 55.6341 105.364 58.642H105.1L105.292 54.5513H120.199L120.392 58.618H120.127C119.791 56.8854 119.167 55.6822 117.343 55.1769C116.647 54.9844 115.494 54.8882 113.862 54.8882V66.1498C113.862 67.9064 113.982 69.2539 116.166 69.3742V69.6389H109.133V69.3742C111.341 69.2539 111.461 67.9304 111.461 66.1498V54.8882H111.509Z" fill="white"/>
<path d="M147.255 54.792C145.07 54.9124 144.95 56.2599 144.95 58.0165V66.1499C144.95 68.0028 145.118 69.2541 147.255 69.3744V69.6391H140.221V69.3744C142.429 69.2541 142.525 67.9306 142.525 66.1499V58.0165C142.525 56.2599 142.405 54.9124 140.221 54.792V54.5273H147.255V54.792Z" fill="white"/>
<path d="M163.506 69.615L157.865 56.4765V66.1499C157.865 67.9065 157.985 69.2541 160.169 69.3744V69.6391H155.08V69.3744C157.265 69.2541 157.385 67.9306 157.385 66.1499V58.0165C157.385 56.2358 157.265 54.9124 155.08 54.792V54.5273H159.857L164.635 66.3424L169.58 54.5273H174.117V54.792C171.908 54.9124 171.812 56.2358 171.812 58.0165V66.1499C171.812 66.9199 171.86 67.4734 171.932 67.8343C172.196 68.8931 173.085 69.3022 174.117 69.3503V69.615H167.083V69.3503C169.292 69.23 169.412 67.9065 169.412 66.1258V56.2599L163.746 69.615H163.506Z" fill="white"/>
<path d="M190.416 69.615L184.775 56.4765V66.1499C184.775 67.9065 184.895 69.2541 187.08 69.3744V69.6391H181.99V69.3744C184.175 69.2541 184.295 67.9306 184.295 66.1499V58.0165C184.295 56.2358 184.175 54.9124 181.99 54.792V54.5273H186.767L191.545 66.3424L196.49 54.5273H201.027V54.792C198.819 54.9124 198.723 56.2358 198.723 58.0165V66.1499C198.723 66.9199 198.771 67.4734 198.843 67.8343C199.107 68.8931 199.995 69.3022 201.027 69.3503V69.615H193.993V69.3503C196.202 69.23 196.322 67.9065 196.322 66.1258V56.2599L190.656 69.615H190.416Z" fill="white"/>
<path d="M225.61 62.0348C225.61 66.4625 221.769 69.9757 217.4 69.9757C213.031 69.9757 209.406 66.5587 209.406 62.1551C209.406 57.7516 210.487 57.535 212.503 55.9468C214.015 54.7918 215.816 54.1421 217.592 54.1421C221.793 54.1421 225.586 57.7275 225.586 62.0108L225.61 62.0348ZM217.496 54.5271C215.936 54.5271 214.856 55.0324 213.895 56.2597C212.743 57.7275 212.071 59.9173 212.071 62.3477C212.071 64.778 212.647 66.27 213.799 67.7378C214.856 69.0613 215.96 69.6148 217.472 69.6148C218.985 69.6148 220.113 69.0613 221.169 67.7378C222.322 66.27 222.898 64.4412 222.898 62.2995C222.898 60.1579 222.226 57.7035 221.073 56.2597C220.137 55.0565 219.033 54.5271 217.472 54.5271H217.496Z" fill="white"/>
<path d="M236.268 58.0165C236.268 57.2465 236.22 56.693 236.148 56.3321C236.076 55.9711 235.908 55.6824 235.668 55.4417C235.188 54.9364 234.612 54.8402 233.939 54.792V54.5273H241.189C241.934 54.5273 242.39 54.5273 242.63 54.5273C244.598 54.6717 246.207 55.7305 246.207 57.8962C246.207 60.0619 245.919 59.6528 245.318 60.2785C244.79 60.8319 244.142 61.0966 243.422 61.3372C244.118 61.4576 244.67 61.5779 245.054 61.7223C246.687 62.2998 247.599 63.8879 247.599 65.5964C247.599 67.3049 247.455 66.8718 247.191 67.4252C246.183 69.5188 244.046 69.5909 241.982 69.5909H233.939V69.3262C236.148 69.2059 236.244 67.8825 236.244 66.1018V57.9684L236.268 58.0165ZM238.693 54.8883V61.4576H239.581C240.277 61.4576 241.165 61.3854 241.837 61.1688C243.038 60.7597 243.662 59.5566 243.662 58.3053C243.662 57.054 242.99 55.3696 241.501 55.0327C241.117 54.9364 240.517 54.8883 239.749 54.8883H238.717H238.693ZM238.693 61.7944V69.2781H241.117C243.374 69.2781 244.958 68.0028 244.958 65.6686C244.958 63.3345 244.838 64.4414 244.646 63.8879C243.974 62.1554 242.438 61.8185 240.685 61.8185H238.717L238.693 61.7944Z" fill="white"/>
<path d="M262.964 54.792C260.779 54.9124 260.659 56.2599 260.659 58.0165V66.1499C260.659 68.0028 260.827 69.2541 262.964 69.3744V69.6391H255.93V69.3744C258.138 69.2541 258.234 67.9306 258.234 66.1499V58.0165C258.234 56.2599 258.114 54.9124 255.93 54.792V54.5273H262.964V54.792Z" fill="white"/>
<path d="M277.848 54.792C275.64 54.9124 275.544 56.2358 275.544 58.0165V69.2781H279.073C282.049 69.2781 283.226 68.0268 283.85 65.067H284.114L283.97 69.615H270.814V69.3503C271.871 69.3503 272.759 68.8931 272.999 67.8103C273.071 67.4493 273.119 66.8959 273.119 66.1499V58.0165C273.119 56.284 272.999 54.8883 270.814 54.792V54.5273H277.848V54.792Z" fill="white"/>
<path d="M298.372 54.792C296.187 54.9124 296.067 56.2599 296.067 58.0165V66.1499C296.067 68.0028 296.235 69.2541 298.372 69.3744V69.6391H291.338V69.3744C293.546 69.2541 293.642 67.9306 293.642 66.1499V58.0165C293.642 56.2599 293.522 54.9124 291.338 54.792V54.5273H298.372V54.792Z" fill="white"/>
<path d="M310.952 61.8424V69.2538H314.481C317.386 69.2538 318.634 68.1229 319.258 65.1872H319.522L319.378 69.5907H306.223V69.326C308.407 69.2057 308.527 67.8822 308.527 66.1016V57.9682C308.527 56.2116 308.407 54.864 306.223 54.7437V54.479H318.058L318.25 58.1126H317.986C317.818 57.0297 317.458 56.2116 316.545 55.5137C315.657 54.864 314.505 54.8159 313.449 54.8159H310.928V61.4333H311.6C313.665 61.4333 314.385 61.0723 314.649 58.7863H314.913L314.865 64.73H314.601C314.361 62.7808 313.785 61.7942 311.576 61.7942H310.952V61.8424Z" fill="white"/>
<path d="M329.82 56.5488V66.15C329.82 67.9066 329.94 69.2542 332.124 69.3745V69.6392H327.035V69.3745C329.22 69.2542 329.34 67.9307 329.34 66.15V57.9926C329.34 56.236 329.22 54.8884 327.035 54.7922V54.5275H331.284L340.239 65.9575V57.9926C340.239 56.236 340.118 54.8884 337.934 54.7681V54.5034H343.023V54.7681C341.967 54.7681 341.079 55.2494 340.839 56.3082C340.743 56.6691 340.695 57.2466 340.695 57.9685V69.5911H340.191L329.82 56.5247V56.5488Z" fill="white"/>
</g>
<defs>
<clipPath id="clip0_227_17">
<rect width="343" height="70" fill="white"/>
</clipPath>
</defs>
</svg>
